<svg version="1.0" xmlns="http://www.w3.org/2000/svg"
 width="200pt" height="200pt" viewBox="0 0 200 200"
 preserveAspectRatio="xMidYMid meet">
  <defs>
    <!-- Gradiente para o planeta Terra -->
    <radialGradient id="earth-gradient" cx="50%" cy="50%" r="50%">
      <stop offset="0%" stop-color="#4DA1FF" />
      <stop offset="100%" stop-color="#1B73E8" />
    </radialGradient>
  </defs>
  
  <!-- Círculo representando a Terra -->
  <circle cx="100" cy="100" r="60" fill="url(#earth-gradient)" />
  
  <!-- Continentes em verde -->
<g transform="translate(0.000000,675.000000) scale(0.01,-0.01)"
fill="#0b962c" stroke="none">
<path d="M6960 59933 c-14 -2 -70 -25 -125 -49 -200 -90 -267 -128 -323 -182
-43 -43 -44 -45 -40 -97 6 -70 53 -136 126 -176 29 -16 58 -29 65 -29 13 0
107 -82 107 -93 0 -3 -24 -16 -52 -30 -29 -13 -72 -40 -96 -60 -24 -20 -62
-42 -85 -48 -62 -16 -84 -34 -112 -89 -38 -76 -57 -84 -173 -76 -74 5 -109 3
-147 -8 -72 -22 -102 -20 -174 15 -94 44 -193 69 -301 76 -85 5 -105 3 -179
-21 -47 -14 -98 -26 -115 -26 -17 0 -94 15 -171 34 -188 46 -394 80 -485 81
-69 0 -82 -3 -160 -44 -156 -79 -169 -96 -190 -232 -12 -81 -11 -89 9 -143 11
-31 21 -77 21 -102 0 -57 20 -105 56 -133 46 -35 206 -127 235 -134 27 -7 68
12 146 64 49 33 126 59 176 59 52 0 189 -36 254 -66 74 -35 130 -96 187 -201
27 -50 73 -119 103 -154 29 -35 53 -72 54 -84 1 -11 2 -97 3 -190 l1 -171 33
-66 c19 -36 58 -96 88 -134 30 -38 75 -96 100 -129 26 -35 72 -78 108 -102 53
-35 74 -59 133 -150 39 -59 82 -131 96 -159 45 -90 120 -139 301 -200 155 -53
235 -103 312 -198 35 -44 67 -91 71 -105 4 -16 -2 -48 -17 -86 -65 -173 -67
-248 -9 -408 59 -159 90 -217 161 -294 89 -99 92 -109 84 -288 -8 -176 -18
-254 -51 -390 -29 -118 -50 -374 -46 -570 2 -109 6 -135 22 -162 25 -40 98
-77 137 -68 68 14 167 175 184 296 21 155 75 249 177 308 49 29 80 56 103 89
18 26 58 74 89 108 67 72 98 123 138 228 36 93 62 124 153 177 107 63 137 116
162 285 11 73 24 112 65 194 71 144 69 201 -11 276 -39 37 -70 54 -158 83 -36
12 -99 39 -140 59 -69 34 -78 42 -108 97 -45 81 -82 117 -164 160 -38 20 -97
63 -131 94 -34 32 -71 63 -82 68 -11 6 -71 19 -133 29 -97 15 -124 16 -183 6
-118 -20 -123 -19 -171 44 -24 31 -51 68 -62 81 -10 13 -22 43 -27 66 -15 69
-30 97 -60 112 -41 22 -65 19 -129 -17 -56 -30 -59 -31 -84 -15 -55 36 -55
158 1 194 14 9 51 20 82 24 31 4 80 11 109 15 l53 7 57 -62 c69 -74 97 -83
142 -44 l32 26 -7 92 c-8 98 -2 121 51 190 12 17 40 68 62 115 35 76 52 98
154 200 64 63 131 129 151 145 23 20 39 45 47 75 22 83 34 96 112 126 92 35
138 77 138 129 0 49 -10 66 -100 165 -42 47 -94 110 -117 140 -22 30 -47 61
-56 69 -10 7 -17 20 -17 28 0 8 28 71 61 140 58 120 61 128 50 164 -8 25 -26
49 -54 70 -23 18 -71 61 -107 95 -76 71 -236 155 -334 173 -61 11 -126 51
-126 76 0 8 14 22 32 31 17 9 52 35 77 58 114 105 141 108 186 24 16 -31 39
-66 49 -77 27 -30 81 -42 153 -35 117 12 161 -10 234 -118 88 -129 94 -148 94
-293 0 -120 2 -134 27 -187 48 -103 155 -188 237 -188 54 0 97 38 132 116 33
73 67 115 117 145 20 13 65 44 99 70 53 41 75 50 160 69 153 35 178 54 188
146 13 110 15 116 66 167 27 27 49 57 50 66 0 9 1 57 2 106 3 106 24 157 84
201 75 55 93 76 93 110 0 17 -9 42 -19 55 -18 22 -26 24 -128 25 -118 1 -135
6 -196 61 -51 46 -75 53 -169 53 -53 0 -103 7 -149 21 -64 19 -80 20 -197 11
-111 -8 -135 -13 -188 -40 -61 -31 -297 -92 -354 -92 -19 0 -44 14 -76 41 -55
48 -68 53 -185 79 -84 19 -293 26 -369 13z m82 -1010 c25 -22 23 -40 -8 -68
-49 -45 -82 -26 -64 36 14 49 40 61 72 32z m-92 -418 c0 -143 -2 -157 -21
-176 -24 -24 -28 -23 -151 42 -125 66 -168 107 -168 157 0 78 53 114 156 106
48 -4 81 -1 109 9 79 29 75 36 75 -138z"/>
<path d="M12599 60999 c-67 -37 -130 -53 -264 -70 -106 -14 -132 -21 -211 -59
-49 -25 -101 -48 -115 -52 -14 -4 -54 -22 -90 -41 -70 -38 -53 -36 -224 -17
-69 8 -112 -16 -155 -86 -17 -27 -43 -55 -58 -63 -52 -26 -433 -97 -523 -97
-29 0 -77 -7 -105 -16 l-52 -17 -84 46 c-97 53 -278 123 -342 132 -56 9 -147
-14 -244 -61 -54 -26 -98 -59 -169 -127 -53 -50 -110 -112 -127 -137 -16 -25
-56 -72 -88 -106 -106 -112 -104 -194 6 -269 33 -23 61 -48 63 -57 5 -26 -45
-75 -167 -165 -64 -48 -135 -100 -158 -117 -55 -41 -73 -74 -73 -133 0 -69
-17 -94 -75 -116 -94 -35 -145 -111 -129 -194 4 -21 18 -61 31 -91 17 -36 23
-61 18 -79 -7 -30 -122 -237 -183 -332 -73 -111 -85 -156 -90 -326 -4 -135 -2
-157 18 -215 23 -69 111 -213 164 -268 70 -75 168 -94 292 -57 32 10 91 19
129 19 122 2 167 -42 186 -180 7 -55 23 -106 52 -169 46 -100 49 -131 32 -350
-7 -92 -5 -110 23 -226 17 -69 49 -167 72 -218 22 -51 49 -123 59 -160 34
-122 58 -150 143 -165 52 -9 164 10 225 40 107 52 170 156 226 374 44 170 52
190 117 270 29 36 59 79 67 97 16 40 17 111 1 217 -17 123 -1 167 108 292 99
112 143 177 190 279 35 76 40 109 29 191 l-7 51 84 71 c99 82 135 125 180 213
31 60 36 64 70 67 43 4 84 -15 139 -65 52 -47 66 -75 99 -203 50 -188 102
-269 175 -272 48 -2 83 34 114 116 37 100 71 157 129 216 94 96 139 94 207 -8
130 -196 153 -222 257 -278 120 -66 152 -73 206 -45 78 40 108 133 78 247 -33
129 -20 158 92 200 116 43 217 126 257 210 24 51 37 150 30 224 -10 106 22
148 79 105 32 -25 99 -19 126 10 19 20 24 40 30 110 8 98 16 111 100 158 136
76 249 247 257 389 5 67 2 78 -26 132 -49 91 -40 129 41 173 27 15 56 18 156
18 119 0 125 -1 143 -24 17 -21 19 -34 13 -90 -8 -81 7 -138 43 -173 77 -72
153 -35 237 115 20 36 44 87 53 113 32 96 52 111 201 143 137 30 213 70 263
137 22 30 47 58 56 61 8 3 46 0 83 -6 53 -10 74 -10 92 -1 42 22 78 63 84 97
10 55 -11 89 -75 120 -31 15 -92 49 -136 76 -44 26 -104 55 -135 64 -61 18
-177 22 -316 9 -86 -8 -96 -7 -215 27 -68 19 -146 40 -174 46 -27 5 -99 26
-160 47 -69 23 -136 39 -181 42 -63 4 -79 1 -130 -23 -46 -21 -78 -29 -144
-32 l-85 -5 -74 48 -74 47 -131 8 c-148 8 -173 15 -207 58 -13 17 -35 45 -48
62 -33 41 -66 56 -177 79 -122 25 -149 25 -204 -5z m-2783 -1750 c20 -9 65
-42 99 -75 34 -33 64 -60 66 -61 1 0 41 -4 88 -9 187 -19 221 -27 264 -60 22
-17 65 -42 94 -56 39 -18 52 -29 50 -42 -3 -14 -13 -17 -58 -15 -173 6 -243 5
-315 -1 -74 -7 -82 -6 -115 16 -19 13 -52 50 -73 82 -52 77 -81 90 -198 80
-75 -5 -90 -4 -95 9 -13 35 62 122 118 139 34 9 36 9 75 -7z"/>
<path d="M5599 55999 c-56 -20 -105 -75 -105 -119 0 -74 77 -119 167 -97 128
33 184 131 114 202 -25 25 -37 29 -83 29 -29 -1 -71 -7 -93 -15z"/>
<path d="M12599 53999 c-22 -11 -61 -37 -87 -58 -26 -21 -71 -47 -100 -58 -68
-23 -108 -54 -160 -122 -28 -37 -63 -68 -109 -95 -81 -47 -103 -76 -125 -160
-24 -93 -21 -159 16 -289 37 -132 58 -173 100 -190 41 -17 76 -10 220 45 164
62 194 63 291 5 41 -23 101 -69 134 -100 33 -31 71 -63 85 -70 34 -18 119 -40
158 -40 67 0 156 70 200 157 43 84 82 259 82 362 0 70 -15 101 -103 209 -74
91 -103 144 -137 246 -30 92 -73 140 -123 138 -20 -1 -55 -11 -77 -22 -43 -22
-46 -22 -102 23 -48 38 -108 45 -163 19z"/>
</g>
</svg>
