<svg xmlns="http://www.w3.org/2000/svg" viewBox="0 0 300 300" width="300" height="300">
  <defs>
    <!-- Gradiente para o corpo de Saturno -->
    <radialGradient id="saturn-body" cx="50%" cy="50%" r="50%">
      <stop offset="0%" stop-color="#F0E68C" />
      <stop offset="100%" stop-color="#BDB76B" />
    </radialGradient>
    <!-- Gradiente para os anéis -->
    <linearGradient id="saturn-rings" x1="0%" y1="50%" x2="100%" y2="50%">
      <stop offset="0%" stop-color="#D2B48C" />
      <stop offset="50%" stop-color="#F5DEB3" />
      <stop offset="100%" stop-color="#D2B48C" />
    </linearGradient>
    <!-- Gradiente para a atmosfera -->
    <linearGradient id="atmosphere" x1="0%" y1="0%" x2="0%" y2="100%">
      <stop offset="0%" stop-color="#BDB76B" stop-opacity="0.8" />
      <stop offset="100%" stop-color="#F5DEB3" stop-opacity="0.2" />
    </linearGradient>
  </defs>
  
  <!-- Hemisfério inferior -->
  <path d="M75,150 h150 a75,75 0 0,1 -75,75 a75,75 0 0,1 -75,-75 z" fill="url(#saturn-body)" />
  
  <!-- Anéis -->
  <ellipse cx="150" cy="150" rx="130" ry="40" fill="url(#saturn-rings)" />
  
  <!-- Hemisfério superior -->
  <path d="M75,150 h150 a75,75 0 0,0 -75,-75 a75,75 0 0,0 -75,75 z" fill="url(#saturn-body)" />
  
  <!-- Atmosfera no hemisfério sul -->
  <path d="M75,150 h150 a75,75 0 0,1 -75,75 a75,75 0 0,1 -75,-75 z" fill="url(#atmosphere)" />
</svg>
